<?xml version="1.0" encoding="UTF-8"?>
<svg xmlns="http://www.w3.org/2000/svg" version="1.1" viewBox="0 0 1000 1000">
  <defs>
    <style>
      .cls-1 {
        fill: #211609;
      }
    </style>
  </defs>
  <!-- Generator: Adobe Illustrator 28.7.2, SVG Export Plug-In . SVG Version: 1.2.0 Build 154)  -->
  <g>
    <g id="Layer_1">
      <g id="Layer_1-2" data-name="Layer_1">
        <g>
          <path class="cls-1" d="M980.4,478l-117.9-81.7c-35.2-125.1-134.4-224.4-259.6-259.6l-80.7-116.9c-9.3-14.5-33.1-14.5-43.4,0l-80.7,117.9c-125.1,35.2-224.4,133.4-259.6,259.6l-117.9,80.7c-7.2,5.2-11.4,13.4-11.4,21.7s4.1,16.5,11.4,21.7l117.9,80.7c35.2,125.1,134.4,224.4,259.6,259.6l80.7,117.9c5.2,7.2,13.4,11.4,21.7,11.4s16.5-4.1,21.7-11.4l80.7-117.9c125.1-35.2,224.4-134.4,259.6-259.6l117.9-80.7c7.2-5.2,11.4-13.4,11.4-21.7s-4.1-16.5-11.4-21.7h0ZM500.5,810c-170.6,0-310.3-139.6-310.3-310.3S329.8,189.5,500.5,189.5s310.3,139.6,310.3,310.3-139.6,310.3-310.3,310.3h0Z"/>
          <path class="cls-1" d="M538.7,278.4c-7.2-14.5-21.7-23.8-38.3-23.8s-31,9.3-38.3,23.8l-165.5,328.9c-8.3,15.5-5.2,34.1,5.2,46.5,8.3,9.3,20.7,15.5,32.1,15.5s8.3-1,13.4-2.1l153.1-48.6,152,48.6c16.5,5.2,34.1,0,45.5-13.4s13.4-32.1,5.2-46.5l-164.4-328.9h0ZM513.9,553.5c-8.3-3.1-17.6-3.1-25.9,0l-105.5,33.1,117.9-235.8,118.9,235.8-105.5-33.1h0Z"/>
        </g>
      </g>
    </g>
  </g>
</svg>